# xmcd CD database file generated by OrangeCD 6.1
#
# Track frame offsets:
#	150
#	11787
#	32287
#	54450
#	69912
#	88347
#	105245
#	130707
#	138700
#	152880
#	167515
#	183342
#
# Disc length: 2766 seconds
#
# Revision: 0
# Processed by: cddbd v1.5.2PL0 Copyright (c) Steve Scherf et al.
# Submitted via: OrangeCD 6.1
#
DISCID=940acc0c
DTITLE=Rainer - The Westwood Sessions, Volume I
DYEAR=1900
DGENRE=
TTITLE0=Voodoo Music
TTITLE1=Mellow Down Easy
TTITLE2=Wayfaring Stranger
TTITLE3=Backwater Blues
TTITLE4=Mush Mind Blues
TTITLE5=All Done In
TTITLE6=Fear
TTITLE7=Just a Little Bit
TTITLE8=Zealots Serve Dogmas (acoustic)
TTITLE9=Everybody Wants to Go to Heaven
TTITLE10=Zealots Serve Dogmas
TTITLE11=I Am a Sinner
EXTD=
EXTT0=
EXTT1=
EXTT2=
EXTT3=
EXTT4=
EXTT5=
EXTT6=
EXTT7=
EXTT8=
EXTT9=
EXTT10=
EXTT11=
PLAYORDER=
